<?xml version="1.0" encoding="UTF-8"?> <svg xmlns="http://www.w3.org/2000/svg" xmlns:xlink="http://www.w3.org/1999/xlink" version="1.1" id="Layer_1" x="0px" y="0px" viewBox="0 0 214 74" style="enable-background:new 0 0 214 74;" xml:space="preserve"> <style type="text/css"> .st0{fill:#020202;stroke:#FFFFFF;stroke-width:1.1758;stroke-miterlimit:10;} .st1{fill:#FFFFFF;} .st2{fill:none;} .st3{fill:url(#SVGID_1_);} .st4{fill:url(#SVGID_00000156548354298781054970000010954813069847078277_);} .st5{fill:url(#SVGID_00000058555576513158998810000007818541114922723471_);} .st6{fill:url(#SVGID_00000119079346930462887460000008041877681085910703_);} </style> <g> <path class="st0" d="M213.4,63c0,6.5-4.8,10.5-11.2,10.5H12.3c-6.5,0-11.7-5.2-11.7-11.7V12.3c0-6.5,5.2-11.7,11.7-11.7h189.9 c6.5,0,11.2,5.2,11.2,11.7V63z"></path> <path class="st0" d="M213.4,63c0,6.5-4.8,10.5-11.2,10.5H12.3c-6.5,0-11.7-5.2-11.7-11.7V12.3c0-6.5,5.2-11.7,11.7-11.7h189.9 c6.5,0,11.2,5.2,11.2,11.7V63z"></path> <g> <g> <path class="st1" d="M146,52.9l-1.6,1.5c-0.4,0.2-0.7,0.4-1.1,0.6c-1.1,0.5-2.2,0.6-3.2,0.6c-1.1,0-2.7-0.1-4.4-1.3 c-2.4-1.7-3.4-4.5-3.4-7c0-5.2,4.2-7.7,7.7-7.7c1.2,0,2.4,0.3,3.4,0.9c1.7,1.1,2.1,2.5,2.3,3.3l-7.9,3.2l-2.6,0.2 c0.8,4.2,3.7,6.7,6.9,6.7C143.7,53.9,144.9,53.4,146,52.9C146,52.9,146.2,52.7,146,52.9z M141.3,44.4c0.6-0.2,1-0.4,1-0.9 c0-1.3-1.5-2.9-3.3-2.9c-1.3,0-3.8,1-3.8,4.6c0,0.6,0.1,1.2,0.1,1.8L141.3,44.4z"></path> <path class="st1" d="M129.6,52.6c0,1.3,0.2,1.5,1.3,1.6c0.6,0.1,1.1,0.1,1.7,0.2l-1.2,0.7h-5.9c0.8-1,0.9-1.1,0.9-1.8v-0.7 l0-19.9h-2.6l2.5-1.2h4.8c-1,0.6-1.3,1-1.5,2.1L129.6,52.6z"></path> <path class="st1" d="M120.5,41.2c0.8,0.6,2.4,2,2.4,4.5c0,2.5-1.4,3.6-2.8,4.7c-0.4,0.4-0.9,0.9-0.9,1.6c0,0.7,0.5,1.1,0.9,1.4 l1.2,0.9c1.5,1.2,2.8,2.4,2.8,4.7c0,3.1-3,6.3-8.8,6.3c-4.8,0-7.2-2.3-7.2-4.8c0-1.2,0.6-2.9,2.6-4.1c2.1-1.3,4.9-1.4,6.4-1.5 c-0.5-0.6-1-1.2-1-2.3c0-0.6,0.2-0.9,0.3-1.3c-0.4,0-0.7,0.1-1.1,0.1c-3.5,0-5.5-2.6-5.5-5.2c0-1.5,0.7-3.2,2.1-4.5 c1.9-1.6,4.2-1.8,6-1.8h6.9l-2.1,1.2L120.5,41.2L120.5,41.2z M118.1,56c-0.3,0-0.4,0-0.8,0c-0.3,0-2.1,0.1-3.5,0.5 c-0.7,0.3-2.9,1.1-2.9,3.4c0,2.4,2.3,4.1,5.9,4.1c3.2,0,4.9-1.5,4.9-3.6C121.7,58.7,120.6,57.8,118.1,56z M119.1,49.7 c0.8-0.8,0.8-1.8,0.8-2.4c0-2.4-1.4-6.1-4.2-6.1c-0.9,0-1.8,0.4-2.3,1.1c-0.6,0.7-0.7,1.6-0.7,2.5c0,2.2,1.3,5.9,4.2,5.9 C117.6,50.6,118.5,50.2,119.1,49.7z"></path> <path class="st1" d="M99.8,55.6c-5.3,0-8.2-4.1-8.2-7.9c0-4.4,3.6-8.1,8.7-8.1c4.9,0,8,3.8,8,7.9 C108.2,51.4,105.2,55.6,99.8,55.6z M103.9,52.9c0.8-1.1,1-2.4,1-3.7c0-2.9-1.4-8.6-5.5-8.6c-1.1,0-2.2,0.4-3,1.1 c-1.3,1.2-1.5,2.6-1.5,4.1c0,3.3,1.6,8.7,5.7,8.7C101.8,54.6,103.2,53.9,103.9,52.9z"></path> <path class="st1" d="M82,55.6c-5.3,0-8.1-4.1-8.1-7.9c0-4.4,3.6-8.1,8.7-8.1c4.9,0,8,3.8,8,7.9C90.5,51.4,87.4,55.6,82,55.6z M86.2,52.9c0.8-1.1,1-2.4,1-3.7c0-2.9-1.4-8.6-5.5-8.6c-1.1,0-2.2,0.4-3,1.1c-1.3,1.2-1.5,2.6-1.5,4.1c0,3.3,1.6,8.7,5.7,8.7 C84.1,54.6,85.4,53.9,86.2,52.9z"></path> <path class="st1" d="M71.7,54.4l-4.5,1c-1.8,0.3-3.4,0.5-5.2,0.5c-8.6,0-11.9-6.4-11.9-11.3c0-6.1,4.7-11.7,12.7-11.7 c1.7,0,3.3,0.2,4.8,0.7c2.3,0.7,3.4,1.5,4.1,2L69.1,38L68,38.2l0.8-1.2c-1.1-1-3-2.9-6.7-2.9c-4.9,0-8.7,3.8-8.7,9.2 c0,5.9,4.3,11.4,11.1,11.4c2,0,3-0.4,4-0.8v-5l-4.7,0.3l2.5-1.3h6.6l-0.8,0.8c-0.2,0.2-0.2,0.2-0.3,0.5c0,0.3-0.1,1.2-0.1,1.5 L71.7,54.4L71.7,54.4L71.7,54.4z"></path> </g> <g> <path class="st1" d="M155.7,53v8.5H154V39.9h1.7v2.5c1.1-1.6,3.1-2.9,5.4-2.9c4.2,0,7,3.2,7,8.2c0,5-2.8,8.2-7,8.2 C158.9,56,156.9,54.8,155.7,53z M166.3,47.7c0-3.8-2-6.7-5.5-6.7c-2.2,0-4.3,1.7-5.2,3.2v6.9c0.9,1.5,3,3.3,5.2,3.3 C164.3,54.4,166.3,51.5,166.3,47.7z"></path> <path class="st1" d="M170.4,55.6V33.9h1.7v21.7H170.4z"></path> <path class="st1" d="M191.1,60.1c0.4,0.2,1,0.3,1.4,0.3c1,0,1.8-0.4,2.4-1.9l1.2-2.8l-6.7-15.8h1.9l5.7,13.7l5.7-13.7h1.9 L196.5,59c-0.8,2-2.2,2.9-4,2.9c-0.5,0-1.3-0.1-1.7-0.2L191.1,60.1z"></path> <path class="st1" d="M186.1,55.5c-0.1-0.5-0.2-1-0.3-1.4c-0.1-0.4-0.1-0.8-0.1-1.2c-0.6,0.9-1.4,1.6-2.4,2.1 c-1,0.6-2,0.8-3.4,0.8c-1.6,0-2.9-0.4-3.8-1.2c-0.9-0.8-1.4-1.9-1.4-3.3c0-1.4,0.7-2.5,2-3.4c1.3-0.9,3-1.3,5.1-1.3h3.9v-2 c0-1.1-0.4-2-1.1-2.6c-0.8-0.6-1.8-1-3.2-1c-1.3,0-2.3,0.3-3.1,0.9c-0.8,0.6-1.2,1.3-1.2,2.2h-1.7l0-0.1 c-0.1-1.2,0.5-2.2,1.6-3.1c1.1-0.9,2.6-1.3,4.5-1.3c1.8,0,3.3,0.4,4.5,1.3c1.1,0.9,1.7,2.1,1.7,3.8v7.7c0,0.6,0,1.1,0.1,1.6 c0.1,0.5,0.2,1,0.3,1.6L186.1,55.5L186.1,55.5z M180.1,54.3c1.4,0,2.5-0.3,3.5-1c1-0.6,1.8-1.5,2.1-2.4v-3h-4 c-1.5,0-2.8,0.3-3.8,1c-1,0.7-1.5,1.5-1.5,2.4c0,0.9,0.3,1.6,0.9,2.1C178.2,54,179,54.3,180.1,54.3z"></path> </g> </g> <g> <g> <path class="st1" d="M50.2,16.2c0-3.3,2.5-5.5,5.5-5.5c2.1,0,3.4,1,4.2,2.2l-1.5,0.9c-0.6-0.8-1.6-1.4-2.7-1.4 c-2.1,0-3.6,1.6-3.6,3.8c0,2.2,1.6,3.8,3.6,3.8c1.1,0,2-0.5,2.5-0.9v-1.6h-3.2v-1.6h5v3.9c-1,1.2-2.5,1.9-4.3,1.9 C52.7,21.6,50.2,19.5,50.2,16.2z"></path> <path class="st1" d="M62.4,21.4V10.9h7.2v1.6h-5.4v2.7h5.3v1.6h-5.3v2.9h5.4v1.6L62.4,21.4L62.4,21.4z"></path> <path class="st1" d="M74.8,21.4v-8.9h-3.2v-1.6h8.3v1.6h-3.2v8.9H74.8z"></path> <path class="st1" d="M86.3,21.4V10.9h1.9v10.6H86.3z"></path> <path class="st1" d="M93.3,21.4v-8.9h-3.2v-1.6h8.3v1.6h-3.2v8.9H93.3z"></path> <path class="st1" d="M104.3,16.2c0-3.2,2.2-5.5,5.4-5.5c3.2,0,5.4,2.3,5.4,5.5s-2.2,5.5-5.4,5.5 C106.5,21.6,104.3,19.3,104.3,16.2z M113.2,16.2c0-2.2-1.4-3.8-3.5-3.8c-2.1,0-3.5,1.6-3.5,3.8c0,2.2,1.4,3.8,3.5,3.8 C111.8,20,113.2,18.3,113.2,16.2z"></path> <path class="st1" d="M124.6,21.4l-5.5-7.6v7.6h-1.9V10.9h1.9l5.4,7.3v-7.3h1.9v10.6H124.6z"></path> </g> </g> <g> <polygon class="st2" points="28.1,46.8 33.5,41.4 33.5,41.4 28.1,46.8 10.8,29.5 10.8,29.5 28.1,46.8 10.7,64.2 10.7,64.2 28.1,46.8 33.5,52.3 33.5,52.3 "></polygon> <linearGradient id="SVGID_1_" gradientUnits="userSpaceOnUse" x1="491.1285" y1="-498.956" x2="468.2835" y2="-513.2534" gradientTransform="matrix(0.7071 0.7071 -0.7071 0.7071 -675.676 50.9743)"> <stop offset="0" style="stop-color:#D6E69E"></stop> <stop offset="0.4456" style="stop-color:#94C3AA"></stop> <stop offset="1" style="stop-color:#00A4B7"></stop> </linearGradient> <path class="st3" d="M33.5,41.4L12.4,29.8c-0.6-0.3-1.2-0.4-1.6-0.3l17.3,17.3L33.5,41.4z"></path> <linearGradient id="SVGID_00000140010171539719234910000016457318116071016833_" gradientUnits="userSpaceOnUse" x1="477.8482" y1="-511.1692" x2="507.4662" y2="-503.4267" gradientTransform="matrix(0.7071 0.7071 -0.7071 0.7071 -675.676 50.9743)"> <stop offset="0" style="stop-color:#EB2D7C"></stop> <stop offset="1.920000e-02" style="stop-color:#ED357C"></stop> <stop offset="0.7039" style="stop-color:#F5BB7F"></stop> <stop offset="1" style="stop-color:#FAE875"></stop> </linearGradient> <path style="fill:url(#SVGID_00000140010171539719234910000016457318116071016833_);" d="M33.5,52.3l7.2-4c1.5-0.8,1.5-2.1,0-2.9 l-7.2-4l-5.4,5.4L33.5,52.3z"></path> <linearGradient id="SVGID_00000117661020273017201590000014584248941835564462_" gradientUnits="userSpaceOnUse" x1="494.3807" y1="-488.1117" x2="462.2618" y2="-507.0085" gradientTransform="matrix(0.7071 0.7071 -0.7071 0.7071 -675.676 50.9743)"> <stop offset="0" style="stop-color:#88CFBD"></stop> <stop offset="9.070000e-02" style="stop-color:#7EBEBB"></stop> <stop offset="0.5396" style="stop-color:#467DAD"></stop> <stop offset="0.8523" style="stop-color:#1E5BA2"></stop> <stop offset="1" style="stop-color:#0B519C"></stop> </linearGradient> <path style="fill:url(#SVGID_00000117661020273017201590000014584248941835564462_);" d="M10.8,29.5c-0.6,0.2-1.1,0.9-1.1,1.8 l0,31c0,1,0.4,1.6,1,1.8l17.3-17.3L10.8,29.5z"></path> <linearGradient id="SVGID_00000118386545149515853350000010239210106059866762_" gradientUnits="userSpaceOnUse" x1="506.0434" y1="-503.1178" x2="486.2648" y2="-477.0605" gradientTransform="matrix(0.7071 0.7071 -0.7071 0.7071 -675.676 50.9743)"> <stop offset="0" style="stop-color:#F04D27"></stop> <stop offset="0.4704" style="stop-color:#B4516C"></stop> <stop offset="0.8353" style="stop-color:#8C5292"></stop> <stop offset="1" style="stop-color:#7B52A1"></stop> </linearGradient> <path style="fill:url(#SVGID_00000118386545149515853350000010239210106059866762_);" d="M10.7,64.2c0.5,0.2,1,0.1,1.6-0.3 l21.2-11.6l-5.4-5.4L10.7,64.2z"></path> </g> </g> </svg> 