<?xml version="1.0" encoding="UTF-8"?> <svg xmlns="http://www.w3.org/2000/svg" xmlns:xlink="http://www.w3.org/1999/xlink" version="1.1" id="livetype" x="0px" y="0px" viewBox="0 0 223.4 74.7" style="enable-background:new 0 0 223.4 74.7;" xml:space="preserve"> <style type="text/css"> .st0{fill:#A6A6A6;} .st1{fill:#FFFFFF;} </style> <g> <g> <g> <path class="st0" d="M205.6,0H17.8c-0.7,0-1.4,0-2,0c-0.6,0-1.1,0-1.7,0c-1.3,0-2.5,0.1-3.7,0.3C9.1,0.6,7.9,1,6.8,1.5 c-1.1,0.6-2.1,1.3-3,2.2c-0.9,0.9-1.6,1.9-2.2,3c-0.6,1.1-1,2.3-1.2,3.6C0.2,11.5,0,12.8,0,14c0,0.6,0,1.1,0,1.7v43.2 c0,0.6,0,1.1,0,1.7c0,1.3,0.1,2.5,0.3,3.7c0.2,1.2,0.6,2.4,1.2,3.6c0.6,1.1,1.3,2.1,2.2,3c0.9,0.9,1.9,1.6,3,2.2 c1.1,0.6,2.3,1,3.5,1.2c1.2,0.2,2.5,0.3,3.7,0.3c0.6,0,1.1,0,1.7,0c0.7,0,1.4,0,2,0h187.8c0.7,0,1.4,0,2,0c0.6,0,1.2,0,1.7,0 c1.3,0,2.5-0.1,3.7-0.3c1.2-0.2,2.4-0.6,3.6-1.2c1.1-0.6,2.1-1.3,3-2.2c0.9-0.9,1.6-1.9,2.2-3c0.6-1.1,1-2.3,1.2-3.6 c0.2-1.2,0.3-2.5,0.3-3.7c0-0.6,0-1.1,0-1.7c0-0.7,0-1.4,0-2V17.8c0-0.7,0-1.4,0-2c0-0.6,0-1.1,0-1.7c0-1.3-0.1-2.5-0.3-3.7 c-0.2-1.2-0.6-2.4-1.2-3.6c-1.2-2.2-3-4.1-5.2-5.2c-1.1-0.6-2.3-1-3.6-1.2c-1.2-0.2-2.5-0.3-3.7-0.3c-0.6,0-1.2,0-1.7,0 C207,0,206.3,0,205.6,0L205.6,0z"></path> <path d="M15.8,73c-0.6,0-1.1,0-1.7,0c-1.2,0-2.3-0.1-3.5-0.3c-1.1-0.2-2.1-0.5-3.1-1c-1-0.5-1.8-1.1-2.6-1.9 C4.1,69,3.5,68.2,3,67.2c-0.5-1-0.8-2-1-3.1c-0.2-1.2-0.3-2.3-0.3-3.5c0-0.4,0-1.7,0-1.7V15.8c0,0,0-1.3,0-1.7 c0-1.2,0.1-2.3,0.3-3.5c0.2-1.1,0.5-2.1,1-3.1c0.5-1,1.1-1.8,1.9-2.6C5.6,4.1,6.5,3.5,7.5,3c1-0.5,2-0.8,3.1-1 c1.2-0.2,2.3-0.3,3.5-0.3l1.7,0h191.9l1.7,0c1.2,0,2.3,0.1,3.5,0.3c1.1,0.2,2.1,0.5,3.1,1c1.9,1,3.5,2.6,4.5,4.5 c0.5,1,0.8,2,1,3.1c0.2,1.2,0.3,2.3,0.3,3.5c0,0.5,0,1.1,0,1.7c0,0.7,0,1.4,0,2v39.1c0,0.7,0,1.3,0,2c0,0.6,0,1.2,0,1.7 c0,1.2-0.1,2.3-0.3,3.5c-0.2,1.1-0.5,2.1-1,3.1c-0.5,1-1.1,1.8-1.9,2.6c-0.8,0.8-1.6,1.4-2.6,1.9c-1,0.5-2,0.8-3.1,1 c-1.2,0.2-2.3,0.3-3.5,0.3c-0.5,0-1.1,0-1.7,0l-2,0L15.8,73z"></path> </g> <g id="_Group_"> <g id="_Group_2"> <g id="_Group_3"> <path id="_Path_" class="st1" d="M46.2,37.9c0-3.2,1.7-6.1,4.4-7.8c-1.7-2.4-4.5-3.9-7.5-4C40.1,25.8,37,28,35.4,28 c-1.6,0-4.1-1.8-6.7-1.8c-3.5,0.1-6.7,2-8.4,5.1c-3.6,6.3-0.9,15.4,2.5,20.5c1.7,2.5,3.8,5.2,6.4,5.1c2.6-0.1,3.6-1.7,6.7-1.7 c3.1,0,4,1.7,6.7,1.6c2.8,0,4.5-2.5,6.2-5c1.2-1.8,2.2-3.7,2.8-5.8C48.4,44.7,46.2,41.5,46.2,37.9z"></path> <path id="_Path_2" class="st1" d="M41.1,22.8c1.5-1.8,2.3-4.2,2.1-6.5c-2.3,0.2-4.5,1.3-6,3.1c-1.5,1.7-2.3,4-2.1,6.3 C37.4,25.7,39.7,24.6,41.1,22.8z"></path> </g> </g> <g> <path class="st1" d="M79,50.7h-8.8L68,56.9h-3.7l8.4-23.2h3.9l8.4,23.2h-3.8L79,50.7z M71.1,47.8h7l-3.5-10.2h-0.1L71.1,47.8z"></path> <path class="st1" d="M103,48.5c0,5.3-2.8,8.6-7.1,8.6c-2.2,0.1-4.3-1-5.3-3h-0.1v8.4h-3.5V40h3.4v2.8h0.1c1.1-1.9,3.2-3.1,5.4-3 C100.2,39.9,103,43.2,103,48.5z M99.4,48.5c0-3.4-1.8-5.7-4.5-5.7c-2.7,0-4.4,2.3-4.4,5.7c0,3.4,1.8,5.7,4.4,5.7 C97.6,54.2,99.4,51.9,99.4,48.5z"></path> <path class="st1" d="M121.6,48.5c0,5.3-2.8,8.6-7.1,8.6c-2.2,0.1-4.3-1-5.3-3h-0.1v8.4h-3.5V40h3.4v2.8h0.1 c1.1-1.9,3.2-3.1,5.4-3C118.8,39.9,121.6,43.2,121.6,48.5z M118,48.5c0-3.4-1.8-5.7-4.5-5.7c-2.7,0-4.4,2.3-4.4,5.7 c0,3.4,1.8,5.7,4.4,5.7C116.3,54.2,118,51.9,118,48.5L118,48.5z"></path> <path class="st1" d="M133.9,50.5c0.3,2.3,2.5,3.8,5.5,3.8c2.9,0,5-1.5,5-3.6c0-1.8-1.3-2.9-4.3-3.6l-3-0.7c-4.3-1-6.2-3-6.2-6.3 c0-4,3.5-6.7,8.4-6.7c4.9,0,8.3,2.7,8.4,6.7h-3.5c-0.2-2.3-2.1-3.7-4.9-3.7s-4.7,1.4-4.7,3.5c0,1.6,1.2,2.6,4.2,3.3l2.6,0.6 c4.8,1.1,6.7,3,6.7,6.4c0,4.3-3.5,7.1-9,7.1c-5.1,0-8.6-2.7-8.8-6.8L133.9,50.5z"></path> <path class="st1" d="M155.6,36v4h3.2v2.7h-3.2v9.3c0,1.4,0.6,2.1,2.1,2.1c0.4,0,0.8,0,1.1-0.1v2.7c-0.6,0.1-1.3,0.2-1.9,0.2 c-3.4,0-4.8-1.3-4.8-4.6v-9.7h-2.5V40h2.5v-4H155.6z"></path> <path class="st1" d="M160.7,48.5c0-5.3,3.1-8.7,8-8.7c4.9,0,8,3.3,8,8.7c0,5.3-3.1,8.7-8,8.7C163.8,57.1,160.7,53.8,160.7,48.5z M173.2,48.5c0-3.6-1.7-5.8-4.5-5.8c-2.8,0-4.5,2.2-4.5,5.8c0,3.7,1.7,5.8,4.5,5.8C171.5,54.3,173.2,52.1,173.2,48.5L173.2,48.5 z"></path> <path class="st1" d="M179.6,40h3.3v2.9h0.1c0.5-1.9,2.2-3.1,4.1-3.1c0.4,0,0.8,0,1.2,0.1v3.2c-0.5-0.2-1-0.2-1.6-0.2 c-1.9-0.1-3.6,1.4-3.6,3.4c0,0.2,0,0.4,0,0.5v10h-3.5L179.6,40z"></path> <path class="st1" d="M204.2,52c-0.5,3.1-3.5,5.2-7.3,5.2c-4.9,0-8-3.3-8-8.6c0-5.3,3.1-8.7,7.8-8.7c4.7,0,7.6,3.2,7.6,8.3v1.2 h-11.9v0.2c-0.2,2.4,1.6,4.6,4,4.8c0.2,0,0.4,0,0.6,0c1.7,0.2,3.3-0.8,3.9-2.4L204.2,52z M192.5,46.9h8.5 c0.1-2.2-1.6-4.2-3.8-4.3c-0.1,0-0.2,0-0.3,0C194.4,42.6,192.5,44.5,192.5,46.9C192.5,46.9,192.5,46.9,192.5,46.9z"></path> </g> </g> </g> <g id="_Group_4"> <g> <path class="st1" d="M70.6,16.3c2.7-0.2,5.1,1.8,5.3,4.6c0,0.3,0,0.7,0,1c0,3.6-1.9,5.6-5.2,5.6h-4V16.3H70.6z M68.3,25.9h2.1 c1.9,0.1,3.6-1.4,3.7-3.3c0-0.2,0-0.5,0-0.7c0.3-1.9-1.1-3.7-3-4c-0.2,0-0.4,0-0.7,0h-2.1V25.9z"></path> <path class="st1" d="M77.8,23.2c-0.2-2.2,1.4-4.1,3.6-4.3c2.2-0.2,4.1,1.4,4.3,3.6c0,0.3,0,0.5,0,0.8c0.2,2.2-1.4,4.1-3.6,4.4 C80,27.8,78,26.2,77.8,24C77.8,23.7,77.8,23.5,77.8,23.2z M84,23.2c0-1.8-0.8-2.9-2.3-2.9c-1.4,0-2.3,1.1-2.3,2.9 c0,1.8,0.8,2.9,2.3,2.9C83.2,26.1,84,25.1,84,23.2L84,23.2z"></path> <path class="st1" d="M96.3,27.4h-1.7l-1.7-6.2h-0.1L91,27.4h-1.7L86.9,19h1.7l1.5,6.4h0.1L92,19h1.6l1.7,6.4h0.1l1.5-6.4h1.7 L96.3,27.4z"></path> <path class="st1" d="M100.5,19h1.6v1.3h0.1c0.4-1,1.4-1.6,2.5-1.5c1.5-0.1,2.8,1,2.9,2.5c0,0.2,0,0.4,0,0.6v5.4H106v-5 c0-1.4-0.6-2-1.8-2c-1.1,0-2,0.8-2,1.8c0,0.1,0,0.2,0,0.3v4.9h-1.7L100.5,19z"></path> <path class="st1" d="M110.3,15.8h1.7v11.7h-1.7V15.8z"></path> <path class="st1" d="M114.3,23.2c-0.2-2.2,1.4-4.1,3.6-4.3c2.2-0.2,4.1,1.4,4.3,3.6c0,0.3,0,0.5,0,0.8c0.2,2.2-1.4,4.1-3.6,4.4 c-2.2,0.2-4.1-1.4-4.4-3.6C114.3,23.7,114.3,23.5,114.3,23.2z M120.5,23.2c0-1.8-0.8-2.9-2.3-2.9c-1.4,0-2.3,1.1-2.3,2.9 c0,1.8,0.8,2.9,2.3,2.9C119.7,26.1,120.5,25.1,120.5,23.2z"></path> <path class="st1" d="M124,25.1c0-1.5,1.1-2.4,3.1-2.5l2.3-0.1v-0.7c0-0.9-0.6-1.4-1.7-1.4c-0.9,0-1.6,0.3-1.8,0.9h-1.6 c0.2-1.4,1.5-2.4,3.4-2.4c2.1,0,3.3,1,3.3,2.8v5.7h-1.6v-1.2h-0.1c-0.5,0.9-1.5,1.4-2.5,1.3c-1.4,0.1-2.6-0.9-2.8-2.3 C124,25.2,124,25.1,124,25.1z M129.4,24.3v-0.7l-2.1,0.1c-1.2,0.1-1.7,0.5-1.7,1.2c0,0.8,0.7,1.2,1.6,1.2 C128.3,26.3,129.3,25.5,129.4,24.3C129.4,24.4,129.4,24.4,129.4,24.3z"></path> <path class="st1" d="M133.2,23.2c0-2.7,1.4-4.3,3.5-4.3c1.1,0,2.1,0.5,2.6,1.5h0.1v-4.6h1.7v11.7h-1.6v-1.3h-0.1 c-0.5,0.9-1.6,1.5-2.6,1.5C134.6,27.6,133.2,25.9,133.2,23.2z M134.9,23.2c0,1.8,0.8,2.9,2.2,2.9c1.4,0,2.3-1.1,2.3-2.8 c0-1.8-0.9-2.9-2.3-2.9C135.8,20.4,134.9,21.5,134.9,23.2L134.9,23.2z"></path> <path class="st1" d="M147.9,23.2c-0.2-2.2,1.4-4.1,3.6-4.3c2.2-0.2,4.1,1.4,4.3,3.6c0,0.3,0,0.5,0,0.8c0.2,2.2-1.4,4.1-3.6,4.4 c-2.2,0.2-4.1-1.4-4.4-3.6C147.9,23.7,147.9,23.5,147.9,23.2z M154.1,23.2c0-1.8-0.8-2.9-2.3-2.9c-1.4,0-2.3,1.1-2.3,2.9 c0,1.8,0.8,2.9,2.3,2.9C153.3,26.1,154.1,25.1,154.1,23.2z"></path> <path class="st1" d="M158.1,19h1.6v1.3h0.1c0.4-1,1.4-1.6,2.5-1.5c1.5-0.1,2.8,1,2.9,2.5c0,0.2,0,0.4,0,0.6v5.4h-1.7v-5 c0-1.4-0.6-2-1.8-2c-1.1,0-2,0.8-2,1.8c0,0.1,0,0.2,0,0.3v4.9h-1.7V19z"></path> <path class="st1" d="M174.6,16.9v2.1h1.8v1.4h-1.8v4.3c0,0.9,0.4,1.3,1.2,1.3c0.2,0,0.4,0,0.6,0v1.4c-0.3,0.1-0.6,0.1-0.9,0.1 c-1.8,0-2.6-0.6-2.6-2.3v-4.7h-1.3v-1.4h1.3v-2.1H174.6z"></path> <path class="st1" d="M178.7,15.8h1.6v4.6h0.1c0.5-1,1.5-1.6,2.6-1.5c1.5-0.1,2.8,1.1,2.9,2.6c0,0.2,0,0.3,0,0.5v5.4h-1.7v-5 c0-1.3-0.6-2-1.8-2c-1.1-0.1-2,0.7-2.1,1.8c0,0.1,0,0.2,0,0.3v4.9h-1.7L178.7,15.8z"></path> <path class="st1" d="M195.6,25.2c-0.5,1.6-2,2.6-3.6,2.4c-2.1,0.1-3.9-1.6-3.9-3.7c0-0.2,0-0.4,0-0.6c-0.3-2.1,1.2-4.1,3.3-4.4 c0.2,0,0.4,0,0.5,0c2.3,0,3.8,1.6,3.8,4.2v0.6h-5.9v0.1c-0.1,1.2,0.8,2.3,2,2.4c0.1,0,0.1,0,0.2,0c0.8,0.1,1.6-0.3,2-1 L195.6,25.2z M189.8,22.5h4.2c0.1-1.1-0.8-2.1-1.9-2.2c-0.1,0-0.1,0-0.2,0C190.7,20.3,189.8,21.2,189.8,22.5 C189.8,22.4,189.8,22.4,189.8,22.5L189.8,22.5z"></path> </g> </g> </g> </svg> 